<svg width="512" height="512" viewBox="0 0 512 512" fill="none" xmlns="http://www.w3.org/2000/svg">
<path d="M195.567 407.022C155.957 397.017 75.2647 356.671 69.3844 275.326C63.504 193.981 126.555 100.548 158.815 64C205.368 92.1768 301.291 168.744 312.562 249.599C247.02 275.326 231.707 311.466 231.707 364.757C215.628 350.342 178.975 191.9 173.982 161.06C174.297 186.546 170.268 301.515 195.567 407.022Z" fill="#82BD69"/>
<path d="M277.035 304.115C241.753 336.948 252.942 396.609 262.946 422.336C321.75 359.857 366.466 339.643 370.753 337.805C355.44 351.281 309.499 400.897 291.736 443.162C414.244 475.014 447.933 369.045 443.646 259.4C359.728 258.788 321.138 263.075 277.035 304.115Z" fill="#82BD69"/>
</svg>
