<svg width="192" height="192" viewBox="0 0 192 192" fill="none" xmlns="http://www.w3.org/2000/svg">
<path d="M73.3378 152.633C58.4837 148.881 28.2243 133.752 26.0191 103.247C23.814 72.7428 47.458 37.7056 59.5557 24C77.013 34.5663 112.984 63.2791 117.211 93.5998C92.6327 103.247 86.8901 116.8 86.8901 136.784C80.8607 131.378 67.1156 71.9627 65.2433 60.3976C65.3613 69.9549 63.8503 113.068 73.3378 152.633Z" fill="#82BD69"/>
<path d="M103.888 114.043C90.6572 126.355 94.8531 148.728 98.6049 158.376C120.656 134.946 137.425 127.366 139.033 126.677C133.29 131.73 116.062 150.336 109.401 166.186C155.341 178.13 167.975 138.392 166.367 97.275C134.898 97.0453 120.427 98.6532 103.888 114.043Z" fill="#82BD69"/>
</svg>
