<svg width="400" height="520" viewBox="0 0 400 520" fill="none" xmlns="http://www.w3.org/2000/svg">
<path d="M151.314 280C118.98 271.833 53.1138 238.9 48.3138 172.5C43.5138 106.1 94.9805 29.8333 121.314 0C159.314 23 237.614 85.5 246.814 151.5C193.314 172.5 180.814 202 180.814 245.5C167.689 233.733 137.77 104.402 133.694 79.2276C133.951 100.031 130.662 193.877 151.314 280Z" fill="#82BD69"/>
<path d="M217.814 196C189.014 222.8 198.147 271.5 206.314 292.5C254.314 241.5 290.814 225 294.314 223.5C281.814 234.5 244.314 275 229.814 309.5C329.814 335.5 357.314 249 353.814 159.5C285.314 159 253.814 162.5 217.814 196Z" fill="#82BD69"/>
<path d="M30.6001 413.104C30.1521 407.536 29.8321 402.128 29.6401 396.88C29.5121 391.632 29.4481 386.672 29.4481 382C29.4481 374.256 29.6081 367.312 29.9281 361.168C30.2481 354.96 30.5681 349.616 30.8881 345.136C25.3841 345.456 20.0401 345.872 14.8561 346.384C9.67206 346.896 4.87206 347.568 0.456055 348.4L0.648055 332.368C8.13605 331.024 15.8161 330.064 23.6881 329.488C31.5601 328.848 39.4321 328.528 47.3041 328.528C52.9361 328.528 58.3121 328.656 63.4321 328.912C68.6161 329.168 73.5761 329.552 78.3121 330.064L78.2161 346.672C73.7361 345.968 68.8721 345.488 63.6241 345.232C58.4401 344.912 53.1281 344.752 47.6881 344.752C47.3681 349.104 47.0801 353.968 46.8241 359.344C46.5681 364.656 46.4401 370.352 46.4401 376.432C46.4401 381.872 46.5681 387.6 46.8241 393.616C47.1441 399.632 47.5281 405.968 47.9761 412.624L30.6001 413.104Z" fill="black"/>
<path d="M115.35 413.68C109.206 413.68 103.798 412.464 99.1261 410.032C94.5181 407.664 90.9021 404.336 88.2781 400.048C85.7181 395.76 84.4381 390.8 84.4381 385.168C84.4381 381.776 85.0141 378.224 86.1661 374.512C87.3181 370.736 89.1741 367.216 91.7341 363.952C94.2941 360.688 97.6541 358.032 101.814 355.984C106.038 353.936 111.158 352.912 117.174 352.912C121.526 352.912 125.174 353.392 128.118 354.352C131.126 355.312 133.558 356.56 135.414 358.096C137.334 359.632 138.774 361.264 139.734 362.992C140.758 364.72 141.43 366.384 141.75 367.984C142.134 369.52 142.326 370.8 142.326 371.824C142.326 378.032 139.702 382.832 134.454 386.224C129.27 389.552 121.91 391.216 112.374 391.216C110.198 391.216 108.118 391.12 106.134 390.928C104.214 390.736 102.422 390.512 100.758 390.256C101.974 393.456 103.99 395.824 106.806 397.36C109.622 398.832 112.534 399.568 115.542 399.568C119.894 399.568 123.734 398.8 127.062 397.264C130.39 395.664 133.526 393.232 136.47 389.968L145.014 402.256C142.966 403.92 140.662 405.648 138.102 407.44C135.606 409.232 132.534 410.704 128.886 411.856C125.238 413.072 120.726 413.68 115.35 413.68ZM117.462 367.312C113.686 367.312 110.358 368.272 107.478 370.192C104.598 372.112 102.486 374.64 101.142 377.776C102.742 378.032 104.31 378.256 105.846 378.448C107.446 378.576 109.014 378.64 110.55 378.64C111.958 378.64 113.558 378.512 115.35 378.256C117.206 378 118.998 377.616 120.726 377.104C122.518 376.592 123.99 375.952 125.142 375.184C126.294 374.352 126.87 373.392 126.87 372.304C126.87 371.792 126.614 371.152 126.102 370.384C125.59 369.616 124.662 368.912 123.318 368.272C121.974 367.632 120.022 367.312 117.462 367.312Z" fill="black"/>
<path d="M152.068 413.488C152.324 408.176 152.516 402.864 152.644 397.552C152.772 392.24 152.836 386.992 152.836 381.808C152.772 377.072 152.676 372.4 152.548 367.792C152.484 363.12 152.324 358.608 152.068 354.256L168.196 353.776C168.26 356.144 168.356 358.576 168.484 361.072C170.532 358.512 172.9 356.464 175.588 354.928C178.34 353.328 181.476 352.528 184.996 352.528C186.34 352.528 188.068 352.72 190.18 353.104C192.292 353.488 194.436 354.224 196.612 355.312L194.788 371.536C193.188 370.576 191.46 369.904 189.604 369.52C187.812 369.072 186.308 368.848 185.092 368.848C180.996 368.848 177.508 370.704 174.628 374.416C171.812 378.064 169.892 383.152 168.868 389.68C168.868 394.16 168.804 398.448 168.676 402.544C168.612 406.576 168.452 410.224 168.196 413.488H152.068Z" fill="black"/>
<path d="M200.162 413.488C200.418 408.176 200.61 402.864 200.738 397.552C200.866 392.24 200.93 386.992 200.93 381.808C200.866 377.072 200.77 372.4 200.642 367.792C200.578 363.12 200.418 358.608 200.162 354.256L216.29 353.776C216.354 356.144 216.45 358.576 216.578 361.072C218.626 358.512 220.994 356.464 223.682 354.928C226.434 353.328 229.57 352.528 233.09 352.528C234.434 352.528 236.162 352.72 238.274 353.104C240.386 353.488 242.53 354.224 244.706 355.312L242.882 371.536C241.282 370.576 239.554 369.904 237.698 369.52C235.906 369.072 234.402 368.848 233.186 368.848C229.09 368.848 225.602 370.704 222.722 374.416C219.906 378.064 217.986 383.152 216.962 389.68C216.962 394.16 216.898 398.448 216.77 402.544C216.706 406.576 216.546 410.224 216.29 413.488H200.162Z" fill="black"/>
<path d="M272.735 413.584C267.935 413.584 263.583 412.336 259.679 409.84C255.775 407.408 252.671 404.112 250.367 399.952C248.127 395.728 247.007 391.024 247.007 385.84C247.007 380.976 247.903 376.592 249.695 372.688C251.487 368.72 253.919 365.328 256.991 362.512C260.127 359.696 263.679 357.552 267.647 356.08C271.615 354.544 275.775 353.776 280.127 353.776C283.775 353.776 287.359 354.288 290.879 355.312C291.135 353.968 291.359 352.624 291.551 351.28L307.967 354.064C307.519 355.28 307.071 357.104 306.623 359.536C306.175 361.968 305.791 364.688 305.471 367.696C305.215 370.704 304.991 373.712 304.799 376.72C304.607 379.728 304.511 382.448 304.511 384.88C304.511 386.864 304.639 388.816 304.895 390.736C305.215 392.592 305.855 394.128 306.815 395.344C307.775 396.496 309.247 397.072 311.231 397.072H312.575L310.175 413.776C305.951 413.776 302.463 413.04 299.711 411.568C296.959 410.16 294.751 408.24 293.087 405.808C290.335 408.88 287.199 410.928 283.679 411.952C280.159 413.04 276.511 413.584 272.735 413.584ZM262.751 387.76C263.071 390.832 264.319 393.296 266.495 395.152C268.735 396.944 271.551 397.84 274.943 397.84C278.207 397.84 280.927 396.976 283.103 395.248C285.279 393.456 287.071 391.024 288.479 387.952C288.415 386.928 288.383 385.872 288.383 384.784C288.383 382.544 288.447 380.24 288.575 377.872C288.703 375.504 288.863 373.168 289.055 370.864C286.367 369.84 283.551 369.328 280.607 369.328C277.151 369.328 274.047 370.032 271.295 371.44C268.607 372.784 266.495 374.672 264.959 377.104C263.423 379.536 262.655 382.352 262.655 385.552C262.655 385.936 262.655 386.32 262.655 386.704C262.655 387.088 262.687 387.44 262.751 387.76Z" fill="black"/>
<path d="M318.289 343.984C318.289 343.408 318.257 342.832 318.193 342.256C318.193 341.616 318.193 340.912 318.193 340.144C318.193 338.096 318.257 335.92 318.385 333.616C318.513 331.312 318.641 329.36 318.769 327.76L335.857 328.048C335.665 330.224 335.441 332.688 335.185 335.44C334.993 338.192 334.865 341.04 334.801 343.984H318.289ZM317.905 412.72C317.713 408.752 317.585 404.528 317.521 400.048C317.457 395.504 317.425 390.96 317.425 386.416C317.425 380.464 317.489 374.672 317.617 369.04C317.745 363.408 317.905 358.288 318.097 353.68L334.609 353.584C334.353 356.528 334.193 360.176 334.129 364.528C334.065 368.816 334.033 373.328 334.033 378.064C334.033 382.736 334.065 387.344 334.129 391.888C334.193 396.432 334.257 400.56 334.321 404.272C334.449 407.92 334.545 410.736 334.609 412.72H317.905Z" fill="black"/>
<path d="M344.657 412.912C344.465 407.28 344.305 402.064 344.177 397.264C344.113 392.464 344.081 387.728 344.081 383.056C344.081 378.384 344.113 373.712 344.177 369.04C344.305 364.304 344.497 359.248 344.753 353.872H360.977C360.721 356.752 360.497 359.664 360.305 362.608C362.481 359.856 365.073 357.584 368.081 355.792C371.089 353.936 374.641 353.008 378.737 353.008C382.769 353.008 386.065 353.68 388.625 355.024C391.249 356.368 393.297 358.224 394.769 360.592C396.305 362.96 397.393 365.68 398.033 368.752C398.737 371.76 399.185 375.024 399.377 378.544C399.569 382 399.665 385.488 399.665 389.008C399.665 392.848 399.601 396.528 399.473 400.048C399.345 403.568 399.217 406.512 399.089 408.88C398.961 411.248 398.865 412.656 398.801 413.104H382.673C382.801 410.48 382.929 407.696 383.057 404.752C383.185 401.744 383.313 398.8 383.441 395.92C383.569 392.976 383.633 390.32 383.633 387.952C383.633 374.32 381.425 367.504 377.009 367.504C373.361 367.504 370.033 369.104 367.025 372.304C364.081 375.44 361.617 379.408 359.633 384.208C359.633 384.848 359.633 385.488 359.633 386.128C359.633 389.2 359.633 392.4 359.633 395.728C359.697 398.992 359.761 402.128 359.825 405.136C359.953 408.08 360.049 410.64 360.113 412.816L344.657 412.912Z" fill="black"/>
<path d="M43.4321 519.68C35.6241 519.68 28.8401 517.952 23.0801 514.496C17.3201 511.104 12.8721 506.304 9.73606 500.096C6.60006 493.888 5.03205 486.56 5.03205 478.112C5.03205 474.912 5.41605 471.36 6.18405 467.456C7.01605 463.488 8.32805 459.552 10.1201 455.648C11.9121 451.68 14.3121 448.064 17.3201 444.8C20.3281 441.536 24.0081 438.912 28.3601 436.928C32.7121 434.88 37.8321 433.856 43.7201 433.856C48.7761 433.856 53.1921 434.496 56.9681 435.776C60.7441 436.992 64.0081 438.56 66.7601 440.48C69.5121 442.336 71.7841 444.288 73.5761 446.336C75.4321 448.384 76.9041 450.272 77.9921 452C79.0801 453.664 79.8801 454.88 80.3921 455.648L66.4721 466.304C65.0641 463.68 63.4001 461.12 61.4801 458.624C59.5601 456.064 57.1921 453.952 54.3761 452.288C51.5601 450.624 48.0721 449.792 43.9121 449.792C39.6241 449.792 36.0721 450.752 33.2561 452.672C30.4401 454.592 28.2001 457.024 26.5361 459.968C24.9361 462.912 23.8161 466.048 23.1761 469.376C22.5361 472.64 22.2161 475.68 22.2161 478.496C22.2161 481.504 22.5361 484.48 23.1761 487.424C23.8161 490.368 24.9041 493.056 26.4401 495.488C28.0401 497.92 30.1521 499.872 32.7761 501.344C35.4641 502.752 38.8241 503.456 42.8561 503.456C47.3361 503.456 50.9841 502.656 53.8001 501.056C56.6801 499.456 59.0801 497.216 61.0001 494.336C62.9201 491.392 64.7121 487.968 66.3761 484.064L82.1201 491.168C79.3041 496.992 76.1361 502.048 72.6161 506.336C69.0961 510.624 64.9681 513.92 60.2321 516.224C55.4961 518.528 49.8961 519.68 43.4321 519.68Z" fill="black"/>
<path d="M119.714 519.872C114.594 519.872 110.114 519.04 106.274 517.376C102.498 515.712 99.3618 513.44 96.8658 510.56C94.3698 507.616 92.5138 504.256 91.2978 500.48C90.0818 496.704 89.4738 492.736 89.4738 488.576C89.4738 484.352 90.2098 480.448 91.6818 476.864C93.2178 473.216 95.2978 470.048 97.9218 467.36C100.61 464.672 103.746 462.592 107.33 461.12C110.914 459.584 114.818 458.816 119.042 458.816C123.458 458.816 127.554 459.584 131.33 461.12C135.106 462.656 138.402 464.8 141.218 467.552C144.034 470.304 146.21 473.536 147.746 477.248C149.346 480.96 150.146 484.992 150.146 489.344C150.146 499.008 147.49 506.528 142.178 511.904C136.866 517.216 129.378 519.872 119.714 519.872ZM119.618 504.32C124.29 504.32 127.842 503.008 130.274 500.384C132.77 497.76 134.018 493.984 134.018 489.056C134.018 484.64 132.674 481.088 129.986 478.4C127.298 475.712 123.778 474.368 119.426 474.368C116.802 474.368 114.402 475.072 112.226 476.48C110.05 477.824 108.29 479.648 106.946 481.952C105.666 484.192 105.026 486.688 105.026 489.44C105.026 491.872 105.506 494.24 106.466 496.544C107.49 498.848 109.09 500.736 111.266 502.208C113.442 503.616 116.226 504.32 119.618 504.32Z" fill="black"/>
<path d="M158.439 518.912C158.247 513.28 158.087 508.064 157.959 503.264C157.895 498.464 157.863 493.728 157.863 489.056C157.863 484.384 157.895 479.712 157.959 475.04C158.087 470.304 158.279 465.248 158.535 459.872H174.759C174.503 462.752 174.279 465.664 174.087 468.608C176.263 465.856 178.855 463.584 181.863 461.792C184.871 459.936 188.423 459.008 192.519 459.008C196.551 459.008 199.847 459.68 202.407 461.024C205.031 462.368 207.079 464.224 208.551 466.592C210.087 468.96 211.175 471.68 211.815 474.752C212.519 477.76 212.967 481.024 213.159 484.544C213.351 488 213.447 491.488 213.447 495.008C213.447 498.848 213.383 502.528 213.255 506.048C213.127 509.568 212.999 512.512 212.871 514.88C212.743 517.248 212.647 518.656 212.583 519.104H196.455C196.583 516.48 196.711 513.696 196.839 510.752C196.967 507.744 197.095 504.8 197.223 501.92C197.351 498.976 197.415 496.32 197.415 493.952C197.415 480.32 195.207 473.504 190.791 473.504C187.143 473.504 183.815 475.104 180.807 478.304C177.863 481.44 175.399 485.408 173.415 490.208C173.415 490.848 173.415 491.488 173.415 492.128C173.415 495.2 173.415 498.4 173.415 501.728C173.479 504.992 173.543 508.128 173.607 511.136C173.735 514.08 173.831 516.64 173.895 518.816L158.439 518.912Z" fill="black"/>
<path d="M236.363 518.912C236.299 515.328 236.267 511.68 236.267 507.968C236.267 504.192 236.267 500.544 236.267 497.024V474.272C233.579 474.464 230.987 474.752 228.491 475.136C226.059 475.52 223.787 476 221.675 476.576L219.659 461.216C221.963 460.704 224.587 460.256 227.531 459.872C230.539 459.488 233.643 459.2 236.843 459.008C237.227 455.488 237.867 452.064 238.763 448.736C239.723 445.408 241.067 442.432 242.795 439.808C244.523 437.12 246.795 434.976 249.611 433.376C252.427 431.776 255.915 430.976 260.075 430.976C265.387 430.976 270.507 432.064 275.435 434.24L272.171 449.504C267.947 447.584 264.459 446.624 261.707 446.624C258.763 446.624 256.715 447.68 255.563 449.792C254.411 451.84 253.675 454.752 253.355 458.528C256.811 458.592 260.075 458.752 263.147 459.008C266.283 459.2 269.003 459.456 271.307 459.776L269.771 474.848C267.531 474.464 264.907 474.176 261.899 473.984C258.955 473.728 255.851 473.6 252.587 473.6C252.459 476.864 252.363 480.064 252.299 483.2C252.235 486.272 252.203 489.344 252.203 492.416C252.203 496.512 252.235 500.736 252.299 505.088C252.427 509.376 252.555 513.984 252.683 518.912H236.363Z" fill="black"/>
<path d="M298.045 519.872C293.949 519.872 290.557 519.136 287.869 517.664C285.245 516.256 283.133 514.304 281.533 511.808C279.997 509.312 278.845 506.528 278.077 503.456C277.373 500.32 276.893 497.088 276.637 493.76C276.445 490.368 276.349 487.104 276.349 483.968C276.349 480.384 276.445 476.736 276.637 473.024C276.893 469.312 277.149 465.248 277.405 460.832L294.973 459.776C294.781 461.12 294.493 463.136 294.109 465.824C293.725 468.512 293.373 471.584 293.053 475.04C292.733 478.496 292.573 482.112 292.573 485.888C292.573 492.096 293.117 496.704 294.205 499.712C295.293 502.656 296.925 504.128 299.101 504.128C303.453 504.128 306.653 500.96 308.701 494.624C310.749 488.288 311.773 478.272 311.773 464.576V460.16L319.933 459.968L329.821 459.776C328.925 465.792 328.253 471.328 327.805 476.384C327.357 481.44 327.069 485.696 326.941 489.152C326.813 492.544 326.749 494.816 326.749 495.968C326.749 498.912 327.005 501.024 327.517 502.304C328.029 503.52 328.925 504.128 330.205 504.128C330.845 504.128 331.549 504 332.317 503.744C333.085 503.488 333.981 503.04 335.005 502.4L334.333 518.912C331.901 519.296 329.789 519.488 327.997 519.488C324.925 519.488 322.397 518.912 320.413 517.76C318.493 516.608 316.957 515.072 315.805 513.152C313.821 515.264 311.357 516.896 308.413 518.048C305.533 519.264 302.077 519.872 298.045 519.872Z" fill="black"/>
<path d="M371.145 519.968C366.793 519.968 362.761 519.456 359.049 518.432C355.337 517.408 351.977 516.096 348.969 514.496C345.961 512.896 343.273 511.2 340.905 509.408L349.545 495.488C352.233 497.984 354.825 499.904 357.321 501.248C359.817 502.592 362.409 503.52 365.097 504.032C367.849 504.544 370.825 504.8 374.025 504.8C376.777 504.8 378.985 504.448 380.649 503.744C382.313 502.976 383.145 502.016 383.145 500.864C383.145 499.904 382.345 499.168 380.745 498.656C379.145 498.08 377.097 497.6 374.601 497.216C372.105 496.768 369.481 496.224 366.729 495.584C362.825 494.56 359.177 493.376 355.785 492.032C352.393 490.688 349.641 488.864 347.529 486.56C345.481 484.256 344.457 481.184 344.457 477.344C344.457 474.272 345.193 471.584 346.665 469.28C348.137 466.912 350.089 464.96 352.521 463.424C355.017 461.824 357.833 460.64 360.969 459.872C364.105 459.104 367.337 458.72 370.665 458.72C376.425 458.72 381.385 459.424 385.545 460.832C389.769 462.176 393.801 463.968 397.641 466.208L388.905 479.456C386.985 478.112 384.777 476.96 382.281 476C379.849 474.976 377.385 474.208 374.889 473.696C372.457 473.12 370.185 472.832 368.073 472.832C365.769 472.832 363.945 473.184 362.601 473.888C361.321 474.592 360.681 475.584 360.681 476.864C360.681 477.632 361.481 478.368 363.081 479.072C364.745 479.712 367.881 480.576 372.489 481.664C375.241 482.304 378.153 482.976 381.225 483.68C384.297 484.32 387.177 485.248 389.865 486.464C392.617 487.616 394.825 489.312 396.489 491.552C398.217 493.728 399.081 496.64 399.081 500.288C399.081 506.432 396.617 511.232 391.689 514.688C386.761 518.208 379.913 519.968 371.145 519.968Z" fill="black"/>
</svg>
